<?xml version="1.0" standalone="no"?>
<!DOCTYPE svg PUBLIC "-//W3C//DTD SVG 20010904//EN"
 "http://www.w3.org/TR/2001/REC-SVG-20010904/DTD/svg10.dtd">
<svg version="1.0" xmlns="http://www.w3.org/2000/svg"
 width="1134.000000pt" height="1134.000000pt" viewBox="0 0 1134.000000 1134.000000"
 preserveAspectRatio="xMidYMid meet">

<g transform="translate(0.000000,1134.000000) scale(0.100000,-0.100000)"
fill="#000000" stroke="none">
<path d="M1800 6909 c0 -34 3 -37 45 -53 64 -25 128 -91 173 -183 22 -43 299
-697 616 -1453 l577 -1375 232 1 232 2 441 1238 c242 680 462 1284 488 1340
64 138 116 220 127 202 12 -19 11 -2407 -1 -2491 -20 -138 -65 -179 -216 -200
l-84 -11 0 -41 0 -40 913 1 c947 1 978 2 1190 45 311 63 530 184 654 364 l35
50 -5 -96 c-11 -206 -55 -256 -247 -276 l-60 -6 0 -41 0 -41 845 0 845 0 0 46
0 46 -119 7 c-139 8 -222 27 -268 62 -44 33 -59 57 -79 129 -16 53 -18 125
-22 643 l-3 582 65 0 c272 0 497 -193 577 -497 l22 -83 50 0 50 0 -6 53 c-26
221 -34 1122 -11 1180 6 16 1 18 -46 15 l-52 -3 -22 -70 c-45 -140 -122 -261
-229 -362 -99 -93 -218 -143 -340 -143 l-58 0 3 633 c3 624 3 633 25 679 33
73 59 82 241 86 134 3 161 1 225 -18 321 -97 522 -380 641 -902 6 -26 10 -28
54 -28 l47 0 -4 282 c-3 247 12 705 24 748 4 13 -137 15 -1225 16 l-1230 1 0
-38 0 -38 58 -6 c141 -16 204 -54 234 -142 9 -29 13 -232 16 -883 l3 -844 -42
58 c-54 76 -179 173 -300 235 -182 93 -398 148 -676 173 -148 13 -148 17 -6
42 418 74 724 281 846 570 36 85 48 219 27 307 -57 248 -301 444 -645 519
-187 41 -224 42 -1312 45 l-1053 3 0 -38 0 -38 66 -11 c298 -52 363 -299 218
-821 -25 -88 -475 -1367 -493 -1398 -7 -12 -9 -12 -13 -1 -3 8 -177 436 -387
953 -210 516 -391 972 -402 1014 -46 168 1 227 199 253 l92 12 0 36 0 36 -770
0 -770 0 0 -36z m4185 -69 c128 -62 189 -258 189 -610 1 -283 -33 -457 -114
-578 -75 -112 -153 -150 -322 -159 l-108 -6 0 549 c0 302 5 582 10 623 12 90
42 156 81 176 76 40 188 42 264 5z m-34 -1449 c174 -45 286 -134 357 -281 50
-106 72 -203 79 -350 15 -317 -60 -598 -192 -718 -80 -73 -144 -95 -275 -96
-132 -1 -172 7 -215 45 -69 61 -69 56 -73 783 l-3 649 123 -6 c73 -3 154 -14
199 -26z"/>
</g>
</svg>
